<?xml version="1.0" encoding="UTF-8"?>
<svg width="276.1mm" height="175.7mm" version="1.1" viewBox="0 0 978.32062 622.57142" xmlns="http://www.w3.org/2000/svg">
 <g transform="translate(180.33 -76.557)">
  <path d="m-116.86 698.95c-2.4056-0.38857-6.4683-2.8548-9.0282-5.4805-4.3761-4.4886-4.5154-5.4602-2.3272-16.252 7.4652-36.815 10.219-131.61 4.6554-160.26-1.279-6.5876-2.3029-14.172-2.2749-16.853 0.0288-2.6815-0.87942-18.259-2.016-34.616-2.744-39.482-2.8508-37.649 2.6842-46.076l4.8529-7.3889-4.1979-9.7338c-2.3088-5.3536-6.7908-14.291-9.9597-19.861-14.25-25.048-14.927-27.102-15.109-45.816-0.1502-15.374-0.94712-19.269-5.7623-28.134-7.6547-14.093-16.451-41.031-18.651-57.122-0.29835-2.181-1.1189-5.3038-1.8235-6.9395-0.70432-1.6357-2.1901-10.558-3.3016-19.827-1.9992-16.672-1.963-16.912 3.3704-22.306 2.9652-2.9988 6.3848-5.4525 7.5992-5.4525 1.2146 0 4.7045-2.2306 7.7558-4.9568 3.0512-2.7262 6.2216-4.9568 7.0455-4.9568 0.82367 0 5.7253-1.8648 10.892-4.144 13.119-5.7867 16.537-7.136 25.341-10.002 4.2438-1.3816 7.716-3.225 7.716-4.0965 0-0.87142 1.3852-1.5844 3.0784-1.5844 1.693 0 8.406-1.7755 14.918-3.9456 6.5115-2.1701 19.959-4.7376 29.884-5.7057 14.417-1.4062 19.664-2.8416 26.1-7.1388 9.4706-6.3243 22.456-9.6881 26.112-6.7643 1.7136 1.3703 6.9667 0.7134 16.753-2.095 8.6097-2.4707 20.282-4.1193 29.467-4.162 16.846-0.0783 32.716-3.2732 47.788-9.6205 10.674-4.4951 30.893-5.6726 36.352-2.1171 2.5876 1.6852 2.0056 2.9053-3.6008 7.5492-3.678 3.0465-6.6907 6.3664-6.6949 7.3775 0 1.0111-4.171 3.4881-9.2593 5.5045-10.658 4.2233-12.488 7.8562-2.578 5.1176 3.6706-1.0144 6.9311-1.8443 7.2459-1.8443 0.3146 0 5.3311-4.5379 11.148-10.084 13.472-12.846 17.907-14.483 30.167-11.136 6.1368 1.6751 13.429 2.1212 20.286 1.241 28.246-3.626 83.552 2.223 82.722 8.7486-1.4119 11.104 3.9259 15.792 15.996 14.048 8.2152-1.1871 10.143-0.63853 18.793 5.3471 9.2901 6.4287 10.385 6.6823 30.284 7.0145 15.371 0.25657 23.783 1.4458 32.924 4.6546 6.7533 2.3705 23.354 6.3968 36.89 8.9472 21.579 4.0658 26.903 4.4017 43.21 2.7257 30.989-3.1851 44.529-8.2654 57.204-21.463 9.1883-9.5677 16.168-10.351 30.019-3.3673l8.9529 4.5141 6.0247-5.8052c6.5866-6.3468 10.142-6.506 29.064-1.3004 8.6642 2.3836 10.165 2.3257 13.104-0.50601 4.3414-4.1834 1.9946-7.5439-5.2681-7.5439-3.1897 0-6.9395-1.3235-8.3327-2.9412-2.1016-2.44-1.5957-3.2847 2.9683-4.9568 3.0259-1.1086 8.6202-2.0156 12.432-2.0156 5.7883 0 8.2239-1.5478 14.784-9.3953 15.057-18.013 25.404-23.455 47.977-25.239 35.551-2.8088 43.911-4.3738 59.071-11.058 4.7628-2.1001 12.17-4.7002 16.461-5.7779 4.2908-1.0777 13.4-3.4003 20.243-5.1612 11.712-3.014 13.522-2.9795 30.864 0.58872 22.058 4.5385 23.662 7.64 6.9374 13.415-6.3164 2.181-14.792 6.4592-18.834 9.5071-4.0934 3.0865-11.768 6.3183-17.322 7.2947-30.622 5.3831-42.121 11.296-17.672 9.0878 17.368-1.5687 20.815 1.173 13.139 10.45-8.6704 10.479-10.592 15.876-10.821 30.391-0.2765 17.504-2.7527 23.365-10.502 24.859-5.45 1.0503-8.186 3.4997-15.998 14.322-1.6916 2.3434-6.6156 5.2827-10.942 6.5318-4.3268 1.2492-9.6745 4.4855-11.884 7.192-5.8689 7.1896-22.867 12.469-39.613 12.303-7.7406-0.0765-15.842-1.0514-18.004-2.1662-3.214-1.6575-3.9302-1.3545-3.9302 1.6627 0 4.9078-7.7739 11.676-15.432 13.436-7.5537 1.7361-22.613 12.078-36.319 24.942-5.6385 5.292-11.147 9.6219-12.242 9.6219-1.0944 0-9.1346 4.4867-17.867 9.9704-14.862 9.3332-15.417 9.9266-8.6755 9.2857 9.1829-0.87305 15.362-4.0688 26.07-13.484 6.1459-5.4037 12.86-8.7608 23.663-11.832 21.751-6.1839 41.604-13.069 50.992-17.684 4.4905-2.2075 9.8385-4.0137 11.884-4.0137 2.0457 0 6.9436-2.0919 10.884-4.6486 6.5556-4.2532 21.048-9.2067 35.534-12.145 7.3905-1.4992 22.559 2.3798 21.524 5.5041-0.43147 1.3021-5.1829 5.4902-10.559 9.3069-10.278 7.2968-10.665 8.7276-6.2788 23.201 0.96379 3.1804-0.10292 5.638-3.9311 9.0567-6.6815 5.9667-35.375 46.968-39.457 56.381-2.4774 5.7134-2.6169 8.3746-0.70619 13.466 3.4862 9.2899 1.0052 16.014-6.9531 18.845-9.9107 3.5253-33.176 7.7152-39.264 7.0712l-5.3078-0.56145 6.3632 5.7277c5.986 5.3882 6.8037 5.584 13.792 3.3037 9.7282-3.1742 29.157-2.3802 39.519 1.6151 6.135 2.3654 8.5292 4.5607 9.3648 8.587 0.85432 4.1164 4.6405 7.451 15.842 13.952 12.334 7.1584 17.054 8.7442 29.123 9.7836 15.736 1.3552 25.638 5.1464 34.783 13.318l5.9331 5.3013-4.2909 3.3482c-2.3601 1.8415-7.8177 3.9162-12.128 4.6104-4.3103 0.69417-8.8023 1.9318-9.9825 2.7504-5.3599 3.7178-21.657 25.212-22.7 29.938-3.5574 16.129-11.55 19.04-33.815 12.315-18.258-5.5141-22.672-5.1799-40.746 3.0848l-15.679 7.1694 5.8377 4.8386c4.9327 4.0884 7.4953 4.7203 16.53 4.0758 5.8809-0.41952 11.556-1.2711 12.61-1.8924 2.2354-1.3165 55.992 1.9373 60.56 3.6657 7.887 2.9839 50.852 4.2821 83.661 2.5279 8.1018-0.43321 15.323-0.22376 16.046 0.46544 3.5054 3.3385-1.885 12.018-9.9309 15.991-10.628 5.248-11.151 5.3114-54.797 6.6344-36.415 1.1039-51.944 3.1401-62.243 8.1614-7.0304 3.4279-7.3101 5.1148-0.57798 3.4867 7.0768-1.7115 19.582 5.7891 18.192 10.911-0.66008 2.4323-11.143 8.6278-30.146 17.816-22.028 10.651-32.396 16.997-42.509 26.017-15.582 13.899-26.217 17.932-40.914 15.515-24.792-4.0768-27.091-4.1167-42.017-0.72966-13.894 3.1528-15.858 3.1872-22.225 0.38927-16.622-7.3045-56.183-17.154-65.626-16.339-7.8434 0.6769-6.1358 3.8757 3.0864 5.7817 4.5268 0.93556 11.749 3.0985 16.049 4.8066 6.5405 2.5981 7.7175 3.9401 7.2016 8.2125-0.45762 3.7915-1.9416 5.2411-5.7605 5.6278-9.7648 0.98861-21.104 4.7552-25.091 8.335-8.2879 7.4403-26.045 6.5375-37.163-1.8894-6.9899-5.2981-26.034-9.8534-35.876-8.5815-9.5056 1.2286-14.443-0.0666-46.932-12.311-60.895-22.95-62.098-23.278-80.965-22.052-13.607 0.88382-18.206 0.46727-22.119-2.0036-4.6895-2.9608-6.8393-8.6115-3.2763-8.6115 0.91542 0 3.3255-1.1705 5.3558-2.6011 6.7622-4.7644-17.247-1.6447-29.227 3.7979-9.6942 4.404-11.657 4.6797-17.881 2.5112-6.5146-2.27-7.8052-1.9606-18.946 4.5415-6.5751 3.8376-17.973 9.0473-25.329 11.577-7.356 2.5299-14.824 5.7849-16.596 7.2334-1.7718 1.4484-6.4014 3.2158-10.288 3.9274-3.8866 0.71164-7.9926 1.9607-9.1243 2.7756-1.1317 0.81496-7.1502 2.0988-13.374 2.8529-6.2243 0.75419-14.095 2.1482-17.49 3.0978-27.492 7.6894-38.665 10.92-49.182 14.22-13.182 4.1362-17.412 2.5428-13.231-4.9843 1.6284-2.9318 1.4772-3.6151-0.65802-2.9749-1.5245 0.4571-6.606 6.2947-11.292 12.972-4.6862 6.6777-11.259 14.721-14.606 17.874-3.3473 3.1529-6.9206 7.01-7.9405 8.5712-6.8375 10.465-46.977 34.105-62.475 36.794-4.0047 0.69498-8.6704 1.8626-10.368 2.5948-1.6975 0.73217-5.0547 1.0133-7.4603 0.62478zm58.021-49.079c3.8788-3.525 7.0523-8.2489 7.0523-10.498 0-3.5559-0.76687-3.8766-5.886-2.462-13.061 3.6096-16.748 7.3315-16.748 16.909 0 6.194 6.1298 4.6404 15.582-3.9493zm640.8-62.236c0-2.3284-6.0171-4.5044-8.4496-3.0556-1.0481 0.62414-1.3728 1.9654-0.72181 2.9805 1.5132 2.3589 9.1714 2.4217 9.1714 0.0751zm31.602-18.869c3.4307-2.7039 4.9903-5.1663 3.743-5.9092-1.1761-0.70043-2.72-0.36674-3.4309 0.74153-0.71091 1.1083-4.0154 2.0151-7.3438 2.0151-5.6905 0-8.0624 3.3495-4.6796 6.609 2.377 2.2904 5.643 1.3265 11.711-3.4564zm-504.39-32.547c1.1101-1.0695 1.6914-6.4083 1.2918-11.864-0.3996-5.4556-0.0308-9.5034 0.82057-8.9951 0.85083 0.50833 2.4356-1.3276 3.5214-4.0797 1.2119-3.0716 5.9724-6.9562 12.328-10.059 5.6944-2.7806 10.666-4.8205 11.049-4.5333 0.38251 0.28725 5.713-1.5897 11.845-4.171 26.891-11.319 31.46-13.143 32.588-13.01 0.65783 0.0779 2.4196-1.0374 3.915-2.4784 1.4953-1.441 3.9282-2.62 5.4064-2.62s3.7741-1.2614 5.1019-2.8032c2.3327-2.7083 19.615-11.488 23.81-12.096 8.23-1.1923 15.184-3.7103 14.254-5.161-0.61131-0.95309 1.2556-2.7721 4.1486-4.0423 2.8932-1.2702 5.2601-3.0656 5.2601-3.9899 0-0.92429 3.7037-3.1085 8.2305-4.8538 4.5267-1.7453 8.2305-3.8258 8.2305-4.6234 0-0.79755 3.9352-2.6218 8.7449-4.0538 4.8097-1.4321 10.134-4.0285 11.831-5.7698 1.6975-1.7413 4.0124-3.1929 5.144-3.2258 1.1317-0.0329 9.9241-3.8248 19.539-8.4265 9.6144-4.6017 18.911-8.3668 20.658-8.3668s8.5202 1.341 15.05 2.98c13.673 3.4317 18.086 2.1043 22.914-6.8927 3.6852-6.867 1.4216-14.906-4.7265-16.787-7.0512-2.1565-10.413-7.8644-11.767-19.976-1.5317-13.707-0.89116-12.356-6.1122-12.892-12.996-1.3333-22.749 2.7844-20.424 8.6232 0.5531 1.3892-0.44155 5.8638-2.2105 9.9435-1.7691 4.0797-2.6693 8.2706-2.0008 9.3131 0.66873 1.0425-0.25678 1.8954-2.0566 1.8954-1.8 0-3.8547 1.5614-4.5663 3.4698-2.6837 7.1982-12.053 13.085-51.988 32.664-12.966 6.3571-24.181 12.503-24.921 13.657-0.74033 1.1542-1.9379 2.0207-2.6611 1.9255-1.3253-0.17448-12.181 4.8601-31.147 14.445-5.6584 2.8598-11.332 5.2033-12.608 5.2078-1.2761 4e-3 -3.3924 1.2533-4.7029 2.775-1.3107 1.5217-5.708 3.3677-9.772 4.1024-7.1346 1.2897-29.529 10.866-34.349 14.688-1.2946 1.0266-10.674 5.1802-20.842 9.2301l-18.488 7.3635-9.593-5.1962c-13.403-7.2597-18.891-6.8389-24.215 1.8566-2.3751 3.8791-4.3185 7.8864-4.3185 8.9052s5.0926 4.6219 11.317 8.0068c6.2243 3.3849 11.783 6.8817 12.354 7.7707 1.6095 2.5093 1.6302 10.278 0.0452 16.957-1.2173 5.1299-0.70411 6.38 3.3298 8.1145 5.0364 2.1656 17.246 0.44248 20.743-2.9274zm248.15-13.249 6.1315-4.9714-2.9683-10.954c-2.6002-9.5944-2.5936-11.315 0.0514-13.864 1.6613-1.6009 3.7813-2.939 4.7109-2.9734 0.92963-0.0345 4.2364-2.2222 7.3486-4.8617 7.2432-6.1431 7.0815-12.657-0.45659-18.386-6.7669-5.1434-11.794-4.1562-23.811 4.6756-7.2006 5.2922-19.185 6.9368-24.142 3.313-1.3842-1.0118-7.1461-3.4805-12.805-5.4861-5.6584-2.0056-13.529-5.0047-17.49-6.6648-3.9609-1.66-7.6646-3.1077-8.2305-3.2171-0.56584-0.10944-6.3876-2.1711-12.937-4.5816-15.01-5.5241-21.072-5.443-30.962 0.41465-8.9226 5.2845-8.5879 5.6888 9.4002 11.351 7.0918 2.2325 17.783 6.2039 23.758 8.8255 5.9749 2.6216 12.17 4.7665 13.768 4.7665 1.5973 0 3.413 0.79338 4.0348 1.7631 0.62202 0.96968 3.4039 2.3128 6.1823 2.9847 2.7782 0.67192 11.642 4.0769 19.696 7.5667l14.645 6.345-0.47942 10.002c-0.26358 5.501 0.63662 12.009 2.0004 14.463 3.492 6.282 14.484 6.0333 22.554-0.51033zm217.61-41.948c9.1714-4.5863 10.685-9.579 2.9109-9.6039-6.8829-0.022-22.869 4.8617-26.911 8.2213-1.7866 1.4851-4.5644 2.7285-6.1728 2.7632-2.2224 0.048-2.0706 0.68793 0.63273 2.6662 4.572 3.3458 18.6 1.4242 29.54-4.0467zm-365.32-42.342c4.4817-2.2032 8.1484-4.7133 8.1484-5.5782 0-0.86488-6.713-4.0915-14.918-7.1703-8.2047-3.0788-19.547-7.6032-25.206-10.054s-17.233-7.3584-25.72-10.905c-32.282-13.49-37.039-15.955-37.35-19.347-0.4893-5.3258-0.93395-6.9818-3.4809-12.959-1.3082-3.0698-2.3786-6.3951-2.3786-7.3895 0-0.99436-2.3438-3.2878-5.2086-5.0966-3.9473-2.4922-6.7609-2.8598-11.617-1.5178-10.805 2.9861-11.823 7.1176-4.8967 19.873l6.0558 11.151-4.227 3.2031c-2.3247 1.7617-6.6286 4.9875-9.5644 7.1685s-5.6105 5.7499-5.944 7.9308c-0.33355 2.181-1.2864 4.4557-2.1179 5.0549-2.4068 1.7349 4.2724 9.5514 11.046 12.927 8.0677 4.02 16.089 2.2473 23.483-5.1902 3.2-3.2185 7.2858-5.8518 9.0796-5.8518 1.7936 0 13.657 3.4979 26.364 7.7731 12.706 4.2752 23.102 7.2887 23.102 6.6967s1.3957 0.0398 3.1016 1.404c3.3823 2.705 27.163 11.614 31.446 11.781 1.4597 0.0567 6.3208-1.6993 10.802-3.9024zm464.42-1.2094c6.5675-1.696 5.742-4.6984-1.292-4.6984-5.6243 0-15.913-3.2663-26.822-8.5154-3.9169-1.8845-5.1488-1.8658-5.8298 0.0888-0.4751 1.3631-3.2146 2.4784-6.0881 2.4784-9.0975 0-1.8895 5.04 11.2 7.8314 6.5216 1.3907 12.783 2.8038 13.915 3.1402 3.5605 1.0584 10.114 0.91568 14.918-0.32496zm-44.392-25.732c3.2473-1.9339-3.9379-6.7247-10.086-6.7247-2.6527 0-7.301-1.5614-10.33-3.4697-3.0284-1.9084-4.8782-2.4869-4.1101-1.2858 0.85844 1.3429-1.7477 3.0916-6.7669 4.5407-9.0838 2.6225-10.574 5.5916-3.5335 7.0393 2.5463 0.52358 6.4815 1.378 8.7449 1.8988 5.2027 1.1971 23.006-0.16714 26.081-1.9987zm-399.62-6.8934c10.355-2.1398 13.817-5.2316 15.546-13.88 0.42614-2.1326 2.7284-6.5211 5.1161-9.7521 3.4257-4.6357 4.4321-9.2265 4.7728-21.769 0.23765-8.742-0.16461-15.894-0.8926-15.894-3.3099 0-6.3278 6.4312-5.3442 11.389 1.6749 8.4429-3.4352 17.524-13.206 23.467-5.5611 3.3827-9.094 4.523-9.5881 3.0946-1.4599-4.2204-8.7185-2.3969-10.728 2.695-1.0755 2.7262-2.4644 4.9568-3.0864 4.9568-0.62182 0-2.0107-2.2306-3.0864-4.9568-1.9434-4.9255-10.288-7.21-10.288-2.8165 0 3.564-13.014-0.12472-16.987-4.8148-1.9872-2.3457-4.6467-8.0693-5.9101-12.719-2.3887-8.792-14.226-21.037-15.836-16.382-0.45329 1.3101 0.20617 3.3745 1.465 4.5877 1.2591 1.2132 2.2891 6.4441 2.2891 11.624 0 5.5939 1.0864 10.062 2.6753 11.004 4.2978 2.5471 11.252 13.125 12.035 18.306 1.6768 11.092 26.673 16.899 51.053 11.86zm-35.451-32.723c2.9877-2.8789 3.4274-2.8789 5.0994 0 2.0128 3.4657 8.9037 4.2559 10.836 1.2426 0.76873-1.1983 3.087-1.0899 6.2333 0.2915 5.8331 2.561 12.265-1.0413 10.368-5.8064-0.67181-1.6869-0.0885-2.4936 1.4496-2.0054 1.4152 0.44916 2.8691 2.7543 3.2309 5.1224 0.83456 5.465 3.2208 5.449 8.5446-0.0575 3.1996-3.3093 4.1327-6.702 3.863-14.045-0.31193-8.4956 0.37841-10.26 5.6354-14.401 3.2949-2.5958 7.2338-4.7518 8.7527-4.791 4.1731-0.10766 11.733-6.6124 11.605-9.9848-0.0618-1.6357 0.6284-6.9793 1.5348-11.875 1.0352-5.5903 0.80144-11.121-0.62859-14.87-4.1714-10.938-4.4138-18.323-0.77717-23.671 2.6628-3.9159 3.2687-8.2004 2.5973-18.361-0.51852-7.8484-1.88-13.576-3.3387-14.044-1.3545-0.43511-1.9395-1.6071-1.2998-2.6045 0.63972-0.9973 0.12757-1.8133-1.1374-1.8133-1.2652 0-1.7006-0.93521-0.9675-2.0782 1.6167-2.5205-12.489-15.766-16.79-15.766-1.6837 0-2.5695-0.76667-1.9685-1.7037 1.3016-2.0294-15.034-8.5744-17.595-7.0494-0.97551 0.58098-1.7739-0.33466-1.7739-2.0348 0-1.7001-1.1574-3.2063-2.572-3.347-16.47-1.639-22.819-1.1876-35.494 2.5238-7.9218 2.3196-16.011 4.9888-17.976 5.9316-1.965 0.94279-4.4471 1.7142-5.5158 1.7142-3.3523 0-15.484 8.5511-20.636 14.546-8.7572 10.189-15.004 35.241-8.7171 34.959 3.8829-0.17428 8.6062-5.9165 8.6062-10.463 0-6.3759 7.359-14.183 15.093-16.013 3.2084-0.75894 7.7708-3.1188 10.138-5.2442 4.8856-4.3859 6.5696-3.8953 4.7949 1.3969-1.378 4.1096-10.518 8.8174-14.36 7.3967-1.4031-0.51882-4.27 0.88679-6.3706 3.1236-3.7237 3.9646-3.7204 4.1393 0.12964 6.9464 3.5556 2.5924 3.5942 2.8858 0.38765 2.9425-2.0634 0.0365-4.1105 2.1703-4.8662 5.0721-0.7177 2.755-3.0502 5.9092-5.1833 7.0092-4.3321 2.234-5.4206 13.461-1.6568 17.087 1.5905 1.5327 0.97305 4.7822-2.1739 11.439-3.8842 8.216-4.1346 10.493-2.1514 19.57 3.037 13.9 7.1241 18.217 21.651 22.869 12.705 4.0688 19.671 11.201 19.037 19.491-0.31708 4.1458 6.1998 14.505 9.1249 14.505 1.0823 0 3.4391-1.4177 5.2374-3.1506zm-1.506-31.383c0-4.651 7.5268-24.399 10.587-27.778 2.1722-2.3984 20.172 16.552 20.232 21.301 0.0246 1.98-0.95968 5.4097-2.1883 7.6215-2.2206 3.9984-2.2619 3.9956-7.2173-0.49013l-4.9837-4.5116-8.2148 4.2252-8.2148 4.2252v-4.5924zm42.181-28.914c-0.69939-1.0905-3.7951-1.9827-6.8794-1.9827-3.9475 0-6.5827-1.6143-8.9008-5.4524-7.8078-12.928 8.6208-27.694 26.107-23.465 13.4 3.2409 17.968 18.686 8.2852 28.016-5.1755 4.9872-16.17 6.6908-18.612 2.884zm-66.83-4.1955c-9.0008-3.4604-12.388-7.8432-12.388-16.029 0-11.712 6.9537-17.447 21.153-17.447 12.187 0 18.295 4.165 20.736 14.14 1.3741 5.6148-2.0533 17.653-5.7035 20.032-3.1619 2.0609-17.736 1.635-23.798-0.6954zm325.18-26.041c5.8376-6.743 4.9467-11.953-1.3514-7.9005-2.2426 1.4429-6.9953 9.0794-6.9953 11.24 0 2.6784 4.799 0.75832 8.3467-3.3394zm43.132-25.775 4.3134-4.4611-4.7477-1.2894c-9.2521-2.5127-15.038-1.7406-17.697 2.3614-3.563 5.4975-1.5198 7.8502 6.8177 7.8502 4.6095 0 8.4731-1.5235 11.314-4.4611zm-296.39-86.667c3.4584-2.1075 3.7551-1.966-12.719-6.0658-13.093-3.2585-24.085-0.31639-24.229 6.4852-0.0452 2.1515 33.351 1.7725 36.948-0.41938z"/>
 </g>
</svg>
